<?xml version="1.0" encoding="utf-8"?>
<!-- Generator: Adobe Illustrator 25.2.3, SVG Export Plug-In . SVG Version: 6.00 Build 0)  -->
<svg version="1.1" xmlns="http://www.w3.org/2000/svg" xmlns:xlink="http://www.w3.org/1999/xlink" x="0px" y="0px"
	 viewBox="0 0 512 512" style="enable-background:new 0 0 512 512;" xml:space="preserve">
<style type="text/css">
	.st0{display:none;}
	.st1{display:inline;}
	.st2{fill:#FFFFFF;}
</style>
<g id="圖層_1" class="st0">
	<g class="st1">
		<path class="st2" d="M384.79,384.79c-85.86-85.86-171.71-171.71-257.57-257.57"/>
		<g>
			<path d="M406,363.57C339.14,296.72,272.29,229.86,205.43,163c-19-19-38-38-57-57c-11.11-11.11-31.47-11.94-42.43,0
				c-10.99,11.98-11.86,30.57,0,42.43C172.86,215.28,239.71,282.14,306.57,349c19,19,38,38,57,57c11.11,11.11,31.47,11.94,42.43,0
				C416.99,394.02,417.86,375.43,406,363.57L406,363.57z"/>
		</g>
	</g>
</g>
<g id="圖層_2" class="st0">
	<g class="st1">
		<path class="st2" d="M100.46,115.73c92.44-24.13,189.62,8.45,245.38,81.79c75.86,99.79,31.91,218.35,29.34,224.93"/>
		<g>
			<path d="M108.44,144.66c9.52-2.45,19.15-4.35,28.89-5.7c-2.66,0.36-5.32,0.71-7.98,1.07c21.07-2.77,42.34-2.82,63.42-0.12
				c-2.66-0.36-5.32-0.71-7.98-1.07c21.14,2.85,41.75,8.43,61.41,16.7c-2.39-1.01-4.78-2.02-7.17-3.02
				c12.21,5.23,23.99,11.41,35.15,18.63c2.89,1.87,5.74,3.81,8.55,5.81c1.4,1,2.79,2.02,4.17,3.05c5.43,4.06-5.07-4.11-0.8-0.63
				c5.18,4.22,10.25,8.54,15.09,13.15c4.86,4.64,9.51,9.49,13.93,14.55c2.31,2.64,4.52,5.36,6.73,8.08
				c3.35,4.13-4.54-6.17-0.85-1.08c1.2,1.66,2.42,3.29,3.6,4.97c8.74,12.4,16.09,25.7,22.05,39.64c-1.01-2.39-2.02-4.78-3.02-7.17
				c7.65,18.27,12.74,37.41,15.43,57.02c-0.36-2.66-0.71-5.32-1.07-7.98c3.03,23.07,2.76,46.41-0.29,69.45
				c0.36-2.66,0.71-5.32,1.07-7.98c-2.41,17.67-6.03,35.74-12.52,52.43c-2.65,6.82-0.52,17.05,3.02,23.12
				c3.64,6.22,10.78,12.16,17.93,13.79c7.68,1.75,16.3,1.37,23.12-3.02c6.94-4.47,10.81-10.26,13.79-17.93
				c5.86-15.07,9.33-31.31,11.77-47.24c5.76-37.54,5.73-75.16-2.94-112.33c-20.4-87.42-89.9-156.44-175.12-181.94
				c-47.04-14.08-97.89-14.33-145.34-2.11c-15.2,3.92-25.89,21.66-20.95,36.9C76.61,139.39,92.15,148.86,108.44,144.66
				L108.44,144.66z"/>
		</g>
	</g>
</g>
<g id="圖層_3">
	<g>
		<path class="st2" d="M110.32,103.98c60.88,16.59,138.3,46.05,146.59,96.82c8.64,52.95-64.2,90.63-53.39,134.83
			c6.53,26.69,44.36,58.98,198.17,72.39"/>
		<g>
			<path d="M102.34,132.91c21.77,5.95,43.3,12.84,64.12,21.57c-2.39-1.01-4.78-2.02-7.17-3.02c16.64,7.06,32.99,15.25,47.59,26
				c0.7,0.51,1.37,1.05,2.07,1.55c-7.68-5.53-4.24-3.33-2.56-1.92c1.6,1.34,3.2,2.68,4.75,4.09c2.84,2.57,5.56,5.29,8.1,8.16
				c0.65,0.74,1.26,1.5,1.91,2.24c3.14,3.59-1.92-2.19-2.18-2.88c0.58,1.57,2.32,3.25,3.24,4.7c1.99,3.14,3.7,6.44,5.15,9.86
				c-1.01-2.39-2.02-4.78-3.02-7.17c1.81,4.48,3.09,9.07,3.81,13.84c-0.36-2.66-0.71-5.32-1.07-7.98c0.64,4.92,0.66,9.8,0.08,14.73
				c0.36-2.66,0.71-5.32,1.07-7.98c-0.86,6.3-2.66,12.33-5.09,18.2c1.01-2.39,2.02-4.78,3.02-7.17
				c-10.39,24.15-29.88,42.63-42.13,65.67c-7.27,13.68-12.9,29.62-11.38,45.36c1.04,10.77,3.43,19.76,8.55,29.34
				c7.69,14.37,20.98,25.67,34.65,34.08c19,11.7,41.03,19.11,62.51,24.74c40.21,10.54,81.99,15.45,123.31,19.08
				c7.26,0.64,16.23-3.81,21.21-8.79c5.2-5.2,9.12-13.74,8.79-21.21c-0.78-17.43-13.21-28.52-30-30
				c-15.61-1.37-31.19-3.03-46.72-5.09c2.66,0.36,5.32,0.71,7.98,1.07c-35.31-4.75-71.48-10.96-104.52-24.8
				c2.39,1.01,4.78,2.02,7.17,3.02c-6.07-2.58-12.03-5.44-17.71-8.8c-2.4-1.42-4.74-2.92-7.02-4.53c-2.44-1.73-6.46-5.49,2.76,2.23
				c-0.93-0.78-1.88-1.51-2.8-2.3c-1.63-1.4-3.19-2.88-4.67-4.44c-3.19-3.36-5.49-7.68,0.49,1.1c-2.01-2.95-3.87-5.86-5.27-9.15
				c1.01,2.39,2.02,4.78,3.02,7.17c-1.3-3.14-2.16-6.37-2.67-9.73c0.36,2.66,0.71,5.32,1.07,7.98c-0.44-3.53-0.43-7.01-0.01-10.53
				c-0.36,2.66-0.71,5.32-1.07,7.98c0.7-4.9,2.13-9.56,4.03-14.12c-1.01,2.39-2.02,4.78-3.02,7.17
				c7.43-17.11,19.98-31.45,30.52-46.65c13.29-19.16,23.71-40.74,24.37-64.47c1.45-52.42-45.89-87.76-88.72-107.39
				c-26-11.92-53.03-21.14-80.59-28.68c-15.12-4.14-33.3,5.14-36.9,20.95C77.78,111.84,86.14,128.48,102.34,132.91L102.34,132.91z"
				/>
		</g>
	</g>
</g>
</svg>
