<?xml version="1.0" encoding="utf-8"?>
<!-- Generator: Adobe Illustrator 25.2.3, SVG Export Plug-In . SVG Version: 6.00 Build 0)  -->
<svg version="1.1" id="圖層_1" xmlns="http://www.w3.org/2000/svg" xmlns:xlink="http://www.w3.org/1999/xlink" x="0px" y="0px"
	 viewBox="0 0 512 512" style="enable-background:new 0 0 512 512;" xml:space="preserve">
<style type="text/css">
	.st0{fill:#FFFFFF;}
</style>
<g>
	<path class="st0" d="M384.79,384.79c-85.86-85.86-171.71-171.71-257.57-257.57"/>
	<g>
		<path d="M406,363.57C339.14,296.72,272.29,229.86,205.43,163c-19-19-38-38-57-57c-11.11-11.11-31.47-11.94-42.43,0
			c-10.99,11.98-11.86,30.57,0,42.43C172.86,215.28,239.71,282.14,306.57,349c19,19,38,38,57,57c11.11,11.11,31.47,11.94,42.43,0
			C416.99,394.02,417.86,375.43,406,363.57L406,363.57z"/>
	</g>
</g>
</svg>
