<?xml version="1.0" encoding="iso-8859-1"?>
<!-- Generator: Adobe Illustrator 25.2.3, SVG Export Plug-In . SVG Version: 6.00 Build 0)  -->
<svg version="1.1" xmlns="http://www.w3.org/2000/svg" xmlns:xlink="http://www.w3.org/1999/xlink" x="0px" y="0px"
	 viewBox="0 0 512 512" style="enable-background:new 0 0 512 512;" xml:space="preserve">
<g id="straight-line" style="display:none;">
	<g style="display:inline;">
		<path style="fill:#FFFFFF;" d="M384.786,384.786c-85.857-85.857-171.714-171.714-257.571-257.571"/>
		<g>
			<path d="M405.999,363.572c-66.856-66.856-133.712-133.712-200.568-200.568c-19.001-19.001-38.002-38.002-57.003-57.003
				c-11.112-11.112-31.466-11.94-42.426,0c-10.994,11.976-11.858,30.568,0,42.426c66.856,66.856,133.712,133.712,200.568,200.568
				c19.001,19.001,38.002,38.002,57.003,57.003c11.112,11.112,31.466,11.94,42.426,0
				C416.992,394.023,417.857,375.43,405.999,363.572L405.999,363.572z"/>
		</g>
	</g>
</g>
<g id="quad-curve" style="display:none;">
	<g style="display:inline;">
		<path style="fill:#FFFFFF;" d="M100.46,115.733c92.439-24.128,189.623,8.449,245.376,81.792
			c75.86,99.793,31.908,218.348,29.338,224.928"/>
		<g>
			<path d="M108.436,144.661c9.522-2.453,19.153-4.355,28.894-5.699c-2.658,0.357-5.317,0.714-7.975,1.072
				c21.068-2.771,42.339-2.823,63.416-0.117c-2.658-0.357-5.317-0.714-7.975-1.072c21.137,2.849,41.75,8.43,61.412,16.697
				c-2.389-1.008-4.778-2.016-7.166-3.024c12.214,5.227,23.992,11.412,35.15,18.63c2.892,1.871,5.741,3.808,8.545,5.808
				c1.403,1.001,2.794,2.019,4.174,3.052c5.425,4.062-5.073-4.107-0.804-0.626c5.177,4.223,10.249,8.538,15.085,13.152
				c4.859,4.636,9.509,9.49,13.928,14.548c2.308,2.642,4.519,5.357,6.728,8.082c3.353,4.134-4.536-6.167-0.85-1.084
				c1.201,1.656,2.424,3.293,3.603,4.966c8.74,12.402,16.086,25.697,22.048,39.643c-1.008-2.389-2.016-4.778-3.024-7.166
				c7.651,18.269,12.741,37.409,15.431,57.025c-0.357-2.658-0.714-5.317-1.072-7.975c3.025,23.066,2.763,46.406-0.291,69.454
				c0.357-2.658,0.714-5.317,1.072-7.975c-2.41,17.669-6.03,35.741-12.518,52.427c-2.653,6.824-0.525,17.052,3.024,23.117
				c3.642,6.223,10.777,12.158,17.929,13.787c7.68,1.749,16.3,1.371,23.117-3.024c6.938-4.473,10.806-10.262,13.787-17.929
				c5.859-15.069,9.328-31.312,11.771-47.238c5.759-37.537,5.735-75.162-2.937-112.33c-20.395-87.42-89.896-156.442-175.117-181.944
				c-47.037-14.076-97.886-14.334-145.335-2.111C77.286,90.72,66.6,108.468,71.532,123.708
				C76.606,139.388,92.148,148.857,108.436,144.661L108.436,144.661z"/>
		</g>
	</g>
</g>
<g id="beizer-curve" style="display:none;">
	<g style="display:inline;">
		<path style="fill:#FFFFFF;" d="M110.316,103.982c60.88,16.588,138.302,46.05,146.589,96.821
			c8.643,52.954-64.199,90.626-53.387,134.825c6.53,26.695,44.36,58.982,198.166,72.39"/>
		<g>
			<path d="M102.341,132.91c21.765,5.952,43.296,12.838,64.118,21.569c-2.389-1.008-4.778-2.016-7.166-3.024
				c16.643,7.059,32.992,15.253,47.588,26.003c0.695,0.512,1.373,1.05,2.073,1.554c-7.682-5.533-4.245-3.328-2.559-1.916
				c1.603,1.343,3.203,2.681,4.755,4.085c2.843,2.573,5.561,5.288,8.098,8.164c0.649,0.736,1.263,1.5,1.908,2.239
				c3.135,3.594-1.924-2.189-2.18-2.876c0.584,1.567,2.319,3.249,3.236,4.697c1.991,3.144,3.695,6.438,5.154,9.861
				c-1.008-2.389-2.016-4.778-3.024-7.166c1.812,4.479,3.087,9.067,3.814,13.844c-0.357-2.658-0.714-5.317-1.072-7.975
				c0.642,4.918,0.662,9.801,0.081,14.726c0.357-2.658,0.714-5.317,1.072-7.975c-0.864,6.298-2.659,12.333-5.094,18.196
				c1.008-2.389,2.016-4.778,3.024-7.166c-10.394,24.155-29.878,42.629-42.127,65.674c-7.27,13.677-12.904,29.619-11.383,45.356
				c1.041,10.769,3.435,19.762,8.554,29.336c7.686,14.374,20.985,25.667,34.649,34.084c18.997,11.701,41.032,19.109,62.511,24.738
				c40.21,10.537,81.992,15.446,123.313,19.081c7.258,0.639,16.232-3.805,21.213-8.787c5.203-5.203,9.122-13.74,8.787-21.213
				c-0.781-17.433-13.208-28.523-30-30c-15.609-1.373-31.19-3.026-46.725-5.086c2.658,0.357,5.317,0.714,7.975,1.072
				c-35.311-4.753-71.476-10.956-104.523-24.801c2.389,1.008,4.778,2.016,7.166,3.024c-6.073-2.577-12.031-5.437-17.712-8.797
				c-2.397-1.418-4.745-2.921-7.018-4.53c-2.443-1.728-6.463-5.493,2.759,2.228c-0.926-0.775-1.884-1.509-2.799-2.298
				c-1.627-1.404-3.194-2.879-4.674-4.438c-3.194-3.363-5.486-7.679,0.488,1.096c-2.006-2.947-3.869-5.858-5.269-9.154
				c1.008,2.389,2.016,4.778,3.024,7.166c-1.298-3.138-2.164-6.37-2.671-9.73c0.357,2.658,0.714,5.317,1.072,7.975
				c-0.439-3.526-0.427-7.006-0.005-10.532c-0.357,2.658-0.714,5.317-1.072,7.975c0.696-4.898,2.126-9.557,4.03-14.115
				c-1.008,2.389-2.016,4.778-3.024,7.166c7.431-17.108,19.979-31.445,30.524-46.646c13.294-19.162,23.71-40.743,24.368-64.472
				c1.452-52.419-45.892-87.757-88.72-107.387c-25.997-11.916-53.025-21.144-80.586-28.681
				c-15.124-4.136-33.301,5.137-36.904,20.953C77.782,111.839,86.142,128.48,102.341,132.91L102.341,132.91z"/>
		</g>
	</g>
</g>
<g id="text">
	<g>
		<path d="M385.443,230.376l-29.48,0.951c-1.133-23.867-5.142-40.764-12.029-50.695c-6.894-9.926-16.89-14.891-29.989-14.891
			h-23.042v162.539c0,9.718,10.166,14.575,30.497,14.575v25.98H191.618v-25.98c20.104,0,30.158-4.857,30.158-14.575V165.741h-23.381
			c-13.104,0-23.042,4.965-29.819,14.891c-6.777,9.931-10.843,26.828-12.199,50.695l-29.48-0.951v-96.953h258.547V230.376z"/>
	</g>
</g>
</svg>
